<?xml version="1.0" encoding="utf-8"?>
<!-- Generator: Adobe Illustrator 21.1.0, SVG Export Plug-In . SVG Version: 6.00 Build 0)  -->
<svg version="1.1" id="Layer_1" xmlns="http://www.w3.org/2000/svg" xmlns:xlink="http://www.w3.org/1999/xlink" x="0px" y="0px"
	 viewBox="0 0 934 96" style="enable-background:new 0 0 934 96;" xml:space="preserve">
<style type="text/css">
	.st0{fill:#AA1E22;}
</style>
<g>
	<path class="st0" d="M60.5,1.2C60.5,1,60.7,1,60.9,1c-2,4.9-6.4,9-10.7,10.4v46.2l6.7-7.3c-1.7,10.2-9,21-18,24.1
		c-10.9,3.6-23.6,1.9-31.6-7.3c-7.2-7.6-7.6-20.8-4.7-30.8c2.3-8.3,8.6-16.5,15.7-21c-7.6,10.2-11.2,26.1-5.6,38.8
		C17.3,63,25.9,66,34.9,64.7c4.8-0.7,9.3-2.4,13.4-5.7V12.4c-13.7,1.7-26.6-2.3-40.4-1.2C5,11.4,2.4,12.4,0.5,15
		c0.3-4.7,2.3-9.2,6.1-12.1c5.1-3.8,12.3-2.8,18.7-2.6C36.9,1,49,4.6,60.5,1.2"/>
	<path class="st0" d="M285.7,8l2.5-0.7c-0.2,3.6-2.5,7.1-5.4,8.5c-3.9,1.9-7.2-1-10.1-2.8c-1.2-0.2-2.2,0.3-3,1.2l-1.1-1.4
		l10.3-10.7C280,4.9,282.5,8.2,285.7,8"/>
	<path class="st0" d="M840.2,8l2.5-0.7c-0.1,3.6-2.5,7.1-5.4,8.5c-3.9,1.9-7.2-1-10.1-2.8c-1.2-0.2-2.2,0.3-3,1.2l-1.1-1.4
		l10.3-10.7C834.4,4.9,836.9,8.2,840.2,8"/>
	<path class="st0" d="M306.9,9.5v53.2c2.5,0.5,4.5,2.1,6.1,4.3l4.2-2.3l0.8,1.6c-4.2,2.8-9,5.2-12.9,9.2c-3-3.3-6.1-5.9-10.3-5
		l-3.4,0.9c-0.2-2.8,1.4-5.9,4-7.3l0.8-0.3V10.9c-0.3-2.3-1.2-4.2-2.6-5.9c6.2,0.7,11.6-1.4,16.5-4.8C308.6,2.9,307.2,6,306.9,9.5"
		/>
	<path class="st0" d="M211,65.8l-2.6,1c-3.9-4.3-8.5-6.6-13.5-7.1V13.1c5-0.3,12.1-2.2,15.1,3.6l0.9,3.3l0.1,44.9V65.8z M223.1,57
		V27c0-6.8-0.5-13.3-3.3-18.9c-2.6-4.5-7-7.1-11.5-7.8c-14.5-1.2-28.8,5-42.6,0c-0.2,2.8,0.5,5.4,1.4,7.8c5.4,9.3,17.4,6.1,25.8,5.4
		v46.2c-11.3-0.3-21.1,6.1-27.5,16.6c9.2-6.6,23.6-6.6,32.8-0.2c7.8-7.1,17.3-10.4,27.2-11.8C224.4,62.1,223.4,59.7,223.1,57"/>
	<path class="st0" d="M37.5,48.6c-1.2,8.3-9.3,9.7-14.9,11.6c1.7-1.7,2.5-4,2.8-6.4c0.2-9.5,0-19,0-28.4l-4.5,1.9v-2.2
		c5.8-2.1,11.2-5,16.6-8.3L37.5,48.6L37.5,48.6z"/>
	<path class="st0" d="M189.5,16.9c-1.4,2.3-1.9,5.2-1.7,8.3l-0.3,23.6c-1.7,8-9.5,10.7-15.5,12.3c5-3.1,3.1-10.2,3.6-15.9
		c-3,0.2-7.3-1.2-8.4,2.8l-0.3,2.3c-1.4-4.2-2-10.6,0.8-14.2c2-2.3,4.8-2.8,7.8-2.8c0.2-5.2,2.5-10,6.7-12.8
		C184.4,18.8,186.9,17.6,189.5,16.9"/>
	<path class="st0" d="M289.9,28.4c-1.1,2.8-3.4,5.2-5.9,6.2v24.3c0.2,1.9,0.6,3.6,2.2,4.8c1.2,1,2.8,1.6,4.5,1.6v1.4
		c-3.9,2.1-7.5,5.2-10.9,8.5c-3.6-1.9-6.1-5.9-6.4-10l-0.2-30c-2.5-0.9-4.7-2.1-6.5-4.2c3.7-1.9,7.3-5,10.4-8.7
		C280.9,25.9,284.8,28.5,289.9,28.4"/>
	<path class="st0" d="M364.1,28.4c-1.1,2.8-3.4,5.2-5.9,6.2v27.5c-0.2,4.7,4.2,7.3,3.4,12.1c0,6.6-4.2,12.5-9.3,15.6
		c-6.2,4-15.5,4.7-22.4,1.7c-3.3-1.4-7.8-4.5-10.9-0.7l-0.5,0.5c0.3-4.7,2-10,6.5-12.1c2.6-0.9,5.9-0.7,8.1,1.4
		c4,3.5,6.7,11.1,12.6,9.5c2.5-0.5,5-2.2,5.9-4.9c2.3-5.4-0.9-10-3.6-14c-0.8-3.1-0.6-6.6-0.8-10l-18.8,13.9c-0.9-1.9-3-4.2-5-4.7
		c-2.2-0.5-4.3,0-6.4,0.7c0-3.5,2.3-6.6,5-8l-0.2-24.8c0-2.1-1.1-4.1-2.8-5.2c-1.2-0.5-2.6-0.7-4-0.7v-1.4c3.1-1.9,6.1-4.8,8.6-8.1
		c3.1,0.5,6.7,2.4,8.1,6.1l0.9,4.5l0.2,28.2c2,0.5,4,2.4,5,4.5l9.6-7.1V35.1c-2.5-0.7-4.7-2.1-6.5-4.2c3.6-1.9,7.2-4.9,10.3-8.7
		C354.9,25.9,358.9,28.5,364.1,28.4"/>
	<path class="st0" d="M119.4,30.5l3.7-1c2.5,5,5,10.2,8.1,15.1l-11.8,7.3L119.4,30.5L119.4,30.5z M132.8,67.5
		c-4.2-2.8-8.5-4.9-13.5-5.7v-7.3l23.8-14.7c-5.6-4.8-9-11.3-11.5-17.5c-7,6.6-16.6,8.1-25.8,6.2c1.7,1.9,2.5,4.2,2.8,6.6l0.2,27.2
		c-2.5,1-5,4-6.1,6.6c8.9-0.9,16.2,2.9,23.5,6.6l14.3-10.7c-0.3-0.7-0.5-1.4-1.1-1.9C137.3,64.6,135,66,132.8,67.5"/>
	<path class="st0" d="M252.5,63.2c-2,1.6-4.2,3.6-6.5,1.9c-3.7-1.2-7.9-4.3-8.7-9c-0.6-3.6,0-7.3,2.5-9.9c3.1-3.5,9-4,12.7-1
		L252.5,63.2L252.5,63.2z M265.2,63.5c-1.6-1.6-2.2-3.8-2.5-6.1V34.3c2.8-1.6,4.4-4.7,5.1-7.8c-1.6,1-3.4,1.7-5.6,1.4
		c-2.3-0.7-4.2-3.5-5.7-5.5c-3.1,3.5-6.4,6.6-10.7,6.8c-3.6,0.5-5.6-3.8-6.8-6.8c-2.2,4.2-5.9,6.2-9.3,7.6c2.6,2.3,5.6,3.8,8.7,4.9
		c3.7,1,6.8-0.7,9.2-3.8c0.9,2.2,3.1,4.2,5,5.2v6.9c-1.2-0.7-2.6-1.2-4-1.6c-7.6-0.9-15.1,2.1-19.1,9.7c-2.8,4.8-3,12.8-0.3,17.8
		c2.5,4.2,6.4,5.7,10.4,6.4l13.2-10.2l1.2,3.6c1.4,3.3,4.5,5.9,7.9,5.9l8.9-8.8C268.7,65.6,266.8,65.1,265.2,63.5"/>
	<path class="st0" d="M98.3,27.9c1.1,0,2-0.7,3.1-1c-0.2,3.1-1.7,6.2-4.3,7.7C96.6,42.4,96.8,51,96.9,59c0,2,1.1,4.1,2.9,5.1
		c1.1,0.5,2.5,0.7,3.8,0.7v1.4c-3.1,2.1-6.3,5-8.4,8.4c-3.1-0.9-6.5-2.6-7.8-6.2L86.3,64l-0.2-27.9c-2-0.5-3.7-2.7-4.8-4.6l-9.5,7
		v23.8c2.3,1,4.6,1.9,6.4,4.1c-3.7,1.9-7.2,5.1-10.3,8.9c-3.5-3.9-7.8-6.3-12.7-6.3c1.1-2.6,3.4-5.1,5.8-6.2v-24
		c-0.2-1.7,0.4-26-0.3-28.7c-0.7-2.7-2-5.2-2-5.2C62.2,5,71,3.7,74.2,0.3c-1.3,2.9-3.1,6.6-2.8,11l0.5,25l18.4-13.5
		C92,25.7,94.9,28.1,98.3,27.9"/>
	<path class="st0" d="M683,11v53.2c2.3,0.5,4.3,2.1,5.9,4.3l4.2-2.3l0.9,1.6c-4.4,2.8-9,5.2-13.1,9.2c-2.8-3.3-6.1-5.9-10.3-5
		l-3.4,0.9c-0.2-2.8,1.6-5.9,4-7.3l0.9-0.3l-0.2-52.8c-0.2-2.2-1.2-4.1-2.6-5.9c6.2,0.7,11.7-1.4,16.5-4.8
		C684.5,4.4,683.1,7.5,683,11"/>
	<path class="st0" d="M436.5,64.9c-4.3-3.3-8.7-6.4-13.8-7.8V14.3l5-3.8c1.6,3.8,5.1,6.2,8.9,6.1L436.5,64.9L436.5,64.9z
		 M420.7,92.9c-1.6-0.3-3.1-1.4-3.9-3.1c-1.7-3.3-1.1-7.6-1.2-11.6V19.3l5.1-3.8V92.9z M448.2,16l6.5-6.4c-6.2-1-12.1-3.5-16.3-9.2
		l-16,11.6V7h-1.7v6.4l-5.4,3.8c-0.2-2.6-0.6-5-1.4-7.3c-1.4-3.8-4.8-7.5-8.4-8c-5.9-1-11.2,1.2-14.6,6.6c-2,3.1-2.3,8.3-0.8,11.6
		c0.2-2.4,0.8-4.5,2.5-6.2c1.7-1.9,5-2.1,7.1-1c5.7,3.6,3.1,11.9,3.7,18.2h-2.6c-3.3,0.2-6.5,2.1-7.8,5.5c-1.2,4.2-0.2,8.5,1.6,11.8
		l0.6-2.1c1.6-3.3,4.8-3.8,8.2-3.5v14.7c-2.2,0-4,0.9-5.9,1.9c-5.8,3.6-7.8,10.4-7.9,17.3c3.4-4.8,8.2-7.3,13.8-7.3
		c0.2,9.5,0.9,19.7-5.3,26.3c5,0.5,9.2-1.9,12.3-6.2c3.3,4,7.2,6.1,12,5.9V72.7c2.8,0.9,5.4,2.4,7.8,4c4.5-8.1,12-13.3,20.2-13.3
		c-1.1-2.1-1.6-4.3-2-6.8L448.2,16z"/>
	<path class="st0" d="M527.4,29c1.1,0,2-0.7,3.1-1c-0.1,3.1-1.7,6.2-4.3,7.8c-0.5,8-0.3,16.6-0.2,24.8c0,2.1,1.1,4.2,3,5.2
		c1.1,0.5,2.5,0.7,3.9,0.7v1.4c-3.1,2.1-6.4,5-8.5,8.5c-3.1-0.9-6.5-2.6-7.9-6.2l-1.1-4.5l-0.2-28.2c-2-0.5-3.7-2.8-4.8-4.7
		l-9.6,7.1v24.1c2.3,1,4.7,1.9,6.5,4.2c-3.7,1.9-7.3,5.2-10.4,9c-3.6-4-7.9-6.4-12.9-6.4c1.1-2.6,3.4-5.2,5.9-6.2V40.1
		c-0.2-1.7-0.6-3.3-1.7-4.7c-1.4-1.2-3.3-1.6-4.8-1.7v-1.4c3.7-2.1,7.3-4.7,10.6-8.1c3.7,1.2,6.5,5.9,6.8,10.4v2.9l18.7-13.7
		C521.1,26.8,524,29.2,527.4,29"/>
	<path class="st0" d="M577,29c1.2,0,2.2-0.7,3.3-1c-0.3,3.1-1.9,6.2-4.5,7.8c-0.3,8-0.3,16.6-0.2,24.8c0.2,2.1,1.1,4.2,2.9,5.2
		c1.1,0.5,2.5,0.7,4,0.7v1.4c-3.3,2.1-6.4,5-8.7,8.5c-3.1-0.9-6.5-2.6-7.9-6.2l-1.1-4.5V37.3c-2.2-0.5-3.9-2.8-5-4.7l-9.6,7.1v24.1
		c2.3,1,4.7,1.9,6.5,4.2c-3.7,1.9-7.3,5.2-10.4,9c-3.6-4-7.8-6.4-12.7-6.4c0.9-2.6,3.4-5.2,5.7-6.2V40.1c0-1.7-0.6-3.3-1.7-4.7
		c-1.4-1.2-3.3-1.6-4.8-1.7v-1.4c3.7-2.1,7.3-4.7,10.6-8.1c3.7,1.2,6.5,5.9,6.8,10.4v2.9l18.8-13.7C570.8,26.8,573.6,29.2,577,29"/>
	<path class="st0" d="M669.1,29.9c-1.1,2.8-3.6,5.2-5.9,6.2v27.5c-0.2,4.7,4,7.3,3.4,12.1c-0.2,6.6-4.4,12.5-9.5,15.6
		c-6.1,4-15.4,4.7-22.2,1.7c-3.3-1.4-7.9-4.5-11-0.7l-0.5,0.5c0.3-4.7,2-10,6.5-12.1c2.6-0.9,5.9-0.7,8.1,1.4
		c4,3.5,6.7,11.1,12.8,9.5c2.3-0.5,4.8-2.2,5.9-4.9c2.2-5.4-0.9-10-3.6-14c-0.8-3.1-0.8-6.6-0.8-10l-18.8,13.8
		c-1.1-1.9-2.9-4.2-5-4.7c-2.3-0.5-4.5,0-6.4,0.7c-0.2-3.5,2.2-6.6,5-8L627,39.9c-0.2-2.1-1.1-4.2-3-5.2c-1.2-0.5-2.6-0.7-3.9-0.7
		v-1.4c3.1-1.9,6.1-4.8,8.4-8.1c3.3,0.5,6.7,2.4,8.1,6.1l1.1,4.5l0.1,28.2c2,0.5,3.9,2.4,5,4.5l9.5-7.1V36.6
		c-2.5-0.7-4.7-2.1-6.5-4.1c3.7-1.9,7.3-4.9,10.4-8.7C659.8,27.5,664,30.1,669.1,29.9"/>
	<path class="st0" d="M703.1,29.9l1.1,4.3l0.3,25.5c0,4.2,3.4,7.6,6.7,8.8c2.3,2.6,5.1-0.2,7.6-0.7V36.6c-2.5-0.7-4.7-2.1-6.5-4.1
		c3.7-1.9,7.3-4.9,10.4-8.7c3.6,3.6,7.8,6.2,12.9,6.1c-1.1,2.8-3.6,5.2-5.9,6.2v24.9c0.2,2.6,0.8,5.2,2.6,7.1
		c-10.3,0.2-19.7,2.6-27.7,8.8c-3.7-0.9-7.5-2.4-9.5-6.4c-1.6-3.8-1.9-8.1-1.6-12.6l-0.3-19.2c-0.3-1.9-0.9-3.6-2.5-4.5
		c-1.4-0.7-2.8-1-4.2-1V32c3.1-1.9,6.1-4.8,8.4-8.1C698.3,24.3,701.8,26.1,703.1,29.9"/>
	<path class="st0" d="M819.1,29c1.1,0,2-0.7,3.1-1c-0.2,3.1-1.7,6.2-4.5,7.8c-0.3,8-0.2,16.6,0,24.8c0,2.1,0.9,4.2,2.8,5.2
		c1.2,0.5,2.6,0.7,4,0.7v1.4c-3.1,2.1-6.4,5-8.6,8.5c-3.3-0.9-6.7-2.6-8.1-6.2l-0.9-4.5l-0.2-28.2c-2.2-0.5-3.7-2.8-4.8-4.7
		l-9.6,7.1v24.1c2.2,1,4.5,1.9,6.5,4.2c-3.9,1.9-7.5,5.2-10.4,9c-3.6-4-7.9-6.4-12.9-6.4c1.1-2.6,3.4-5.2,5.9-6.2V40.1
		c-0.1-1.7-0.6-3.3-1.7-4.7c-1.5-1.2-3.3-1.6-5-1.7v-1.4c3.7-2.1,7.5-4.7,10.7-8.1c3.7,1.2,6.5,5.9,6.8,10.4v2.9L811,23.8
		C812.7,26.8,815.7,29.2,819.1,29"/>
	<path class="st0" d="M844.9,29.9c-1.1,2.8-3.6,5.2-5.9,6.2v24.3c0.2,1.9,0.6,3.6,2,4.8c1.4,1,3,1.5,4.7,1.5v1.4
		c-4,2.1-7.6,5.2-11,8.5c-3.4-1.9-6.1-5.9-6.2-10l-0.3-30c-2.3-0.9-4.5-2.1-6.4-4.1c3.6-1.9,7.1-5,10.4-8.7
		C835.7,27.5,839.7,30.1,844.9,29.9"/>
	<path class="st0" d="M928.6,29c1.1,0,2-0.7,3.1-1c-0.2,3.1-1.7,6.2-4.4,7.8c-0.5,8-0.3,16.6-0.2,24.8c0,2.1,1.1,4.2,3,5.2
		c1.1,0.5,2.5,0.7,3.9,0.7v1.4c-3.1,2.1-6.4,5-8.6,8.5c-3.1-0.9-6.5-2.6-7.9-6.2l-1.1-4.5l-0.2-28.2c-2-0.5-3.7-2.8-4.8-4.7
		l-9.6,7.1v24.1c2.3,1,4.7,1.9,6.5,4.2c-3.7,1.9-7.5,5.2-10.4,9c-3.6-4-7.9-6.4-12.9-6.4c1.1-2.6,3.4-5.2,5.9-6.2V40.1
		c-0.2-1.7-0.6-3.3-1.7-4.7c-1.4-1.2-3.3-1.6-4.8-1.7v-1.4c3.7-2.1,7.3-4.7,10.6-8.1c3.7,1.2,6.5,5.9,6.8,10.4v2.9l18.6-13.7
		C922.2,26.8,925.1,29.2,928.6,29"/>
	<path class="st0" d="M464,32l3.7-1c2.5,5,5,10.2,7.9,15.1L464,53.3V32z M477.4,69c-4.2-2.8-8.7-4.8-13.5-5.7V56l23.6-14.7
		c-5.4-4.8-8.9-11.3-11.3-17.5c-7,6.6-16.8,8.1-26,6.2c1.7,1.9,2.5,4.2,2.8,6.6l0.3,27.2c-2.6,1-5,4-6.1,6.6
		c8.7-0.9,16,2.9,23.3,6.6L485,66.3c-0.3-0.7-0.6-1.4-1.1-1.9C481.7,66.1,479.6,67.5,477.4,69"/>
	<path class="st0" d="M758.6,64.7c-2.2,1.6-4.2,3.6-6.5,1.9c-3.7-1.2-8.1-4.3-8.7-9c-0.6-3.6,0-7.3,2.5-9.9c3.1-3.5,9-4,12.8-1
		L758.6,64.7L758.6,64.7z M771.4,65c-1.7-1.6-2.3-3.8-2.5-6.1V35.8c2.6-1.6,4.4-4.7,5.1-7.8c-1.7,1-3.6,1.7-5.6,1.4
		c-2.5-0.7-4.3-3.5-5.8-5.5c-3.1,3.5-6.5,6.6-10.7,6.8c-3.6,0.5-5.6-3.8-6.8-6.8c-2.2,4.2-5.9,6.2-9.3,7.6c2.6,2.3,5.6,3.8,8.7,4.8
		c3.7,1,6.8-0.7,9.2-3.8c0.9,2.2,3,4.2,5,5.2v6.9c-1.2-0.7-2.6-1.2-4-1.6c-7.6-0.9-15.1,2.1-19.1,9.7c-2.8,4.8-2.9,12.8-0.3,17.8
		c2.3,4.2,6.4,5.7,10.4,6.4l13.2-10.2l1.2,3.6c1.4,3.3,4.5,5.9,7.9,5.9l8.9-8.8C774.8,67.1,772.8,66.6,771.4,65"/>
	<path class="st0" d="M869.4,64.7c-2,1.6-4.2,3.6-6.5,1.9c-3.7-1.2-7.9-4.3-8.5-9c-0.8-3.6-0.2-7.3,2.3-9.9c3.1-3.5,9-4,12.8-1V64.7
		z M882.1,65c-1.6-1.6-2.2-3.8-2.5-6.1V35.8c2.8-1.6,4.4-4.7,5.1-7.8c-1.6,1-3.4,1.7-5.6,1.4c-2.3-0.7-4.2-3.5-5.7-5.5
		c-3.1,3.5-6.4,6.6-10.7,6.8c-3.6,0.5-5.6-3.8-6.8-6.8c-2.2,4.2-5.9,6.2-9.3,7.6c2.6,2.3,5.6,3.8,8.7,4.8c3.7,1,6.8-0.7,9.2-3.8
		c0.9,2.2,3.1,4.2,5,5.2v6.9c-1.2-0.7-2.6-1.2-4-1.6c-7.9-1-15.7,2.4-19.4,10.6c-2.6,4.7-2.5,12.3,0,17c2.5,4.2,6.4,5.7,10.4,6.4
		l13.2-10.2l1.2,3.6c1.4,3.3,4.5,5.9,7.9,5.9l8.9-8.8C885.5,67.1,883.7,66.6,882.1,65"/>
	<path class="st0" d="M609.5,68.5l-2.3,0.9c-1.7-3.5-5-6.2-8.4-6.8c-4.8-0.5-8.4,2.1-12.3,3.8c5-5.9,10.9-11.6,16.9-16.1h6.1
		L609.5,68.5L609.5,68.5z M594.6,48.6V32l2.8-0.5c2.7,3.3,5.9,5.7,10.1,4.8c3.4-0.7,6.4-2.9,9-5.5c-3.9,6.4-9.2,12.3-14.6,17.7
		C599.5,48.8,597,48.6,594.6,48.6 M621.9,45.3l-13.8-0.2c5.1-5.7,10-11.6,12.4-18.5c0.8-0.9-0.2-1.6-0.8-1.9
		c-0.8,1.6-1.9,3.3-3.4,3.8c-4.2,1-7.5-1.7-10.3-4.7c-6.4,5.7-14.6,8.7-23.3,6.8c1.2,1.6,1.9,3.5,2.2,5.4
		c-0.2,6.1,1.4,13.3-2.2,17.8l12.8,0.2c-6.1,5.9-12.3,12.6-16,20.1c-1.1,1.2,0.8,1.2,1.2,1.7c0.9-1.6,2.6-3.6,4.4-4.3
		c5.1-1.4,9,2.6,13.1,5.5c6.4-6.4,15.1-8.7,23.8-6.4c-1.1-1.9-2-4-2.2-6.4C620,57.9,618,50.2,621.9,45.3"/>
</g>
</svg>
