<?xml version="1.0" encoding="utf-8"?>
<!-- Generator: Adobe Illustrator 21.1.0, SVG Export Plug-In . SVG Version: 6.00 Build 0)  -->
<svg version="1.1" id="Layer_1" xmlns="http://www.w3.org/2000/svg" xmlns:xlink="http://www.w3.org/1999/xlink" x="0px" y="0px"
	 viewBox="0 0 455.2 144.8" style="enable-background:new 0 0 455.2 144.8;" xml:space="preserve">
<style type="text/css">
	.st0{fill:#FFFFFF;}
	.st1{fill:#ADB6BA;}
	.st2{fill:#677172;}
	.st3{fill:#8C97A5;}
	.st4{fill:#24242F;}
	.st5{fill:#C5CED2;}
	.st6{fill:#E0E4E7;}
</style>
<g>
	<path class="st0" d="M445.1,101.5c0,0,0.5-12.1-7.8-19.9c-8.3-7.8-17.2-13.9-17.2-13.9S388.2,50.9,383,47.8
		c-5.2-3-59.4-22.3-74.7-26.6C293.1,16.9,254.7,8,254.7,8l61,105.2l70.5,9.8l36.4-7L445.1,101.5z"/>
	<path class="st0" d="M18.1,92.8c0,0-6.4-18.5,32.8-36.4C90,38.6,143,28.3,143,28.3s55.9-9.6,73.1-10l49.7-8.2l64.5,104.2L195,135.8
		L81.7,131l-55.9-24.3L18.1,92.8z"/>
	<path class="st1" d="M450.7,117.8c-0.4,17.8-101.7,29.7-226.1,26.5c-124.4-3.2-225-20.2-224.5-38c0.4-17.8,101.7-29.7,226.1-26.5
		C350.6,83,451.1,100,450.7,117.8"/>
	<path class="st2" d="M12.8,82.1c0,0,4.5,19.2,7.6,21.5c2.4,1.9,9.8,33.1,154.3,29.9c35.2-0.8,146.7-16.9,146.7-16.9l-6.2-17
		c0,0-108.8,19.7-170.1,18.9C61.3,117.5,26.4,107.4,12.8,82.1"/>
	<path class="st2" d="M321.4,116.6l8.1-16.2c48.4,7.2,42.6,7.8,66.1,10.1c21.8,2.1,50.8,4.6,59-4.6c0,0-9.1,16.1-17.4,18.4
		C428.8,126.6,433.3,128.9,321.4,116.6"/>
	<path class="st3" d="M314.6,99.7l6.8,16.9l8.1-16.2l-7.3-18.8l-7.5,4.1c0,0-18.5-45-41.5-71.4V8.5l-6.2-8.3l-4.3,8.7"/>
	<path class="st4" d="M207.6,51.5c-0.7-4.2-13.2-5.6-28.1-3.1c-14.8,2.5-26.3,7.8-25.7,12c0.7,4.2,13.2,5.6,28.1,3.1
		C196.8,61.1,208.3,55.7,207.6,51.5"/>
	<path class="st4" d="M279.4,53.9c-0.7-4.2-13.3-5.6-28.1-3.1c-14.8,2.5-26.3,7.8-25.7,12c0.7,4.2,13.2,5.6,28.1,3.1
		C268.6,63.4,280.1,58,279.4,53.9"/>
	<path class="st4" d="M256.2,30.2c-0.7-4.2-13.3-5.6-28.1-3.1c-14.8,2.5-26.3,7.8-25.7,12c0.7,4.2,13.2,5.6,28.1,3.1
		C245.4,39.7,256.9,34.3,256.2,30.2"/>
	<path class="st4" d="M298.4,49.6c0,0,22.5,1.4,23.3-2.3c0.9-4.1-10.2-10.3-24.8-13.7c-2.5-0.6-7.2-1.4-7.2-1.4L284.1,43l-6.9-9.9
		c0,0-8.1,0-8.5,1.8c-0.8,3.4,16,12.3,16,12.3l7,11.9L298.4,49.6z"/>
	<path class="st0" d="M302.6,84.6c0,9.2-59.4,16.7-132.8,16.7C96.4,101.3,37,93.8,37,84.6s59.4-16.7,132.8-16.7
		C243.1,67.9,302.6,75.4,302.6,84.6"/>
	<path class="st5" d="M265,14.1c0,0-217.5,23.6-198.9,65.2c18.6,41.6,234.4,2.6,234.4,2.6l9.2,16.9c0,0-264.3,57.6-284.8-19
		c0,0,12.2-47.8,214.9-73.3l22.8,2.4l2.9,5.2"/>
	<path class="st6" d="M263.3,10c0,0-224.9,24.8-205.3,68.7c19.6,43.9,247.2,2,247.2,2l9.4,19.1c0,0-280.7,60-302.3-20.9
		c0,0,12.9-50.5,226.8-77.4L257.8,0"/>
	<path class="st5" d="M333.6,100.4c0,0,126.1,28.6,115.4-3.5C438.3,64.8,286.3,10.7,279.2,8.6L273,6.1l0.1,8.3l73,29.1
		c0,0,65.9,27.7,78.2,46.6c12.2,18.9-97.4-7-97.4-7L333.6,100.4z"/>
	<path class="st6" d="M329.5,100.4c0,0,136.7,31,125.1-3.8C442.9,61.9,278.2,3.3,270.5,1l-3.5-0.8l6.2,8.3c0,0,144.5,59.5,157.7,80
		c13.3,20.4-108.7-6.8-108.7-6.8L329.5,100.4z"/>
</g>
</svg>
